<?xml version="1.0" encoding="iso-8859-1"?>
<!-- Generator: Adobe Illustrator 19.0.0, SVG Export Plug-In . SVG Version: 6.00 Build 0)  -->
<svg version="1.1" id="Capa_1" xmlns="http://www.w3.org/2000/svg" xmlns:xlink="http://www.w3.org/1999/xlink" x="0px" y="0px"
	 viewBox="0 0 512 512" style="enable-background:new 0 0 512 512;" xml:space="preserve">
<path style="fill:#FFFFFF;" d="M501.333,96v362.667c0,23.564-19.103,42.667-42.667,42.667H53.333
	c-23.564,0-42.667-19.103-42.667-42.667V96H501.333z"/>
<path style="fill:#87D2F3;" d="M501.333,53.333V96H10.667V53.333c0-23.564,19.103-42.667,42.667-42.667h405.333
	C482.231,10.667,501.333,29.769,501.333,53.333z"/>
<path style="fill:#FFFFFF;" d="M394.667,160c0.359-0.017,0.718,0.018,1.067,0.107l-1.067,10.56l-109.44,58.88L256,245.333
	l-29.227-15.787l-109.44-58.88h-10.667c0-5.891,4.776-10.667,10.667-10.667H394.667z"/>
<path style="fill:#87D2F3;" d="M405.333,170.667v170.667c-0.004,4.28-2.565,8.144-6.507,9.813l-4.16-9.813L288,234.667l-2.773-5.12
	l109.44-58.88l1.067-10.56C401.164,160.652,405.306,165.209,405.333,170.667L405.333,170.667z"/>
<path style="fill:#FFFFFF;" d="M394.667,341.333l4.16,9.813c-1.316,0.559-2.73,0.849-4.16,0.853H117.333
	c-0.359,0.018-0.718-0.018-1.067-0.107l1.067-10.56L224,234.667l2.773-5.12L256,245.333l29.227-15.787l2.773,5.12L394.667,341.333z"
	/>
<g>
	<path style="fill:#87D2F3;" d="M117.333,341.333l-1.067,10.56c-5.43-0.546-9.573-5.102-9.6-10.56V170.667h10.667l109.44,58.88
		l-2.773,5.12L117.333,341.333z"/>
	<path style="fill:#87D2F3;" d="M256,309.333l53.333,85.333h-32v64h-42.667v-64h-32L256,309.333z"/>
</g>
<g>
	<path style="fill:#2170A6;" d="M458.667,0H53.333C23.893,0.035,0.035,23.893,0,53.333v405.333
		C0.035,488.107,23.893,511.965,53.333,512h405.333c29.441-0.035,53.298-23.893,53.333-53.333V53.333
		C511.965,23.893,488.107,0.035,458.667,0z M490.667,458.667c0,17.673-14.327,32-32,32H53.333c-17.673,0-32-14.327-32-32V53.333
		c0-17.673,14.327-32,32-32h405.333c17.673,0,32,14.327,32,32V458.667z"/>
	<path style="fill:#2170A6;" d="M42.667,85.333h426.667v21.333H42.667V85.333z"/>
	<path style="fill:#2170A6;" d="M53.333,42.667h21.333V64H53.333V42.667z"/>
	<path style="fill:#2170A6;" d="M96,42.667h21.333V64H96V42.667z"/>
	<path style="fill:#2170A6;" d="M437.333,42.667h21.333V64h-21.333V42.667z"/>
	<path style="fill:#2170A6;" d="M397.547,149.579c-0.95-0.175-1.914-0.257-2.88-0.245H117.333c-11.782,0-21.333,9.551-21.333,21.333
		v170.667c-0.017,10.666,7.879,19.69,18.453,21.088c0.95,0.175,1.914,0.257,2.88,0.245h64v-21.333h-48.917l97.781-97.781
		l20.725,11.168c3.168,1.715,6.987,1.715,10.155,0l20.725-11.168l97.781,97.781h-48.917v21.333h64
		c11.782,0,21.333-9.551,21.333-21.333V170.667C416.017,160.001,408.121,150.977,397.547,149.579z M117.333,326.251V182.784
		l93.248,50.208L117.333,326.251z M256,233.205l-116.16-62.539h232.32L256,233.205z M394.667,182.784v143.467l-93.248-93.259
		L394.667,182.784z"/>
	<path style="fill:#2170A6;" d="M265.045,303.68c-3.52-5.007-10.433-6.213-15.44-2.693c-1.046,0.736-1.958,1.647-2.693,2.693
		l-53.333,85.333c-3.122,4.996-1.604,11.576,3.392,14.699c1.708,1.067,3.682,1.629,5.696,1.621H224v53.333h21.333v-64
		c0-5.891-4.776-10.667-10.667-10.667h-12.8L256,329.461L290.133,384h-12.8c-5.891,0-10.667,4.776-10.667,10.667v64H288v-53.333
		h21.333c5.891,0,10.667-4.776,10.667-10.667c0-1.999-0.562-3.958-1.621-5.653L265.045,303.68z"/>
</g>
<g>
</g>
<g>
</g>
<g>
</g>
<g>
</g>
<g>
</g>
<g>
</g>
<g>
</g>
<g>
</g>
<g>
</g>
<g>
</g>
<g>
</g>
<g>
</g>
<g>
</g>
<g>
</g>
<g>
</g>
</svg>
